<?xml version="1.0" encoding="UTF-8" standalone="no"?>
<!-- Svg Vector Icons : http://www.onlinewebfonts.com/icon -->

<svg
   version="1.1"
   x="0px"
   y="0px"
   viewBox="0 0 1200 1200"
   id="svg6"
   xmlns="http://www.w3.org/2000/svg"
   xmlns:svg="http://www.w3.org/2000/svg">
  <defs
     id="defs10" />
  <metadata
     id="metadata2"> Svg Vector Icons : http://www.onlinewebfonts.com/icon </metadata>
  <g
     id="g8"
     transform="translate(99.995875,100.00659)">
    <g
       transform="matrix(0.1,0,0,-0.1,0,511)"
       id="g6">
      <path
         fill="#1e81b0"
         d="M 1694.1,4969.9 C 1455.6,4893.3 1276.2,4727.1 1180,4490.8 l -52.5,-124.7 V 117.3 c 0,-4218.1 0,-4250.9 43.8,-4369.1 91.9,-242.8 273.5,-415.7 522.9,-494.4 135.6,-43.8 196.9,-43.8 3305.8,-43.8 3097.9,0 3170.2,0 3305.8,43.8 168.5,52.5 330.4,170.7 428.8,312.9 148.8,218.8 137.8,-109.4 137.8,4544.1 0,4653.5 10.9,4325.3 -137.8,4544.1 -98.5,142.2 -260.4,260.4 -428.8,312.9 -135.6,43.8 -205.6,43.8 -3314.5,41.6 -2988.7,-0.1 -3181.2,-2.3 -3297.2,-39.5 z M 7887.8,2998.7 V 2254.8 H 4999.9 2112 v 743.9 743.9 H 4999.9 7887.8 Z M 3706.9,1174 c 94.1,-50.3 111.6,-118.1 111.6,-450.7 V 417 h 306.3 c 332.6,0 400.4,-17.5 450.7,-111.6 63.4,-124.7 21.9,-336.9 -76.6,-391.6 -24.1,-10.9 -186,-21.9 -361,-21.9 h -319.4 v -306.3 c 0,-413.5 -35,-481.3 -249.4,-481.3 -240.7,0 -275.7,61.3 -275.7,481.3 v 306.3 H 2974 c -175,0 -336.9,10.9 -361,21.9 -98.5,54.7 -140,266.9 -76.6,391.6 50.3,94.1 118.1,111.6 450.7,111.6 h 306.3 v 312.9 c 2.2,332.6 15.3,391.6 111.6,444.1 70,39.4 225.3,37.2 301.9,0 z M 7419.6,342.6 c 63.4,-63.4 74.4,-89.7 74.4,-177.2 0,-113.8 -26.3,-179.4 -96.3,-234.1 -41.6,-35 -126.9,-39.4 -960.4,-39.4 h -916.7 l -63.4,63.4 c -54.7,54.7 -63.5,81 -63.5,181.6 2.2,63.4 15.3,140 30.6,168.4 61.3,109.4 72.2,109.4 1026.1,111.6 h 894.8 z M 6597,-1457.9 c 35,-19.7 72.2,-59.1 85.3,-87.5 56.9,-122.5 10.9,-328.2 -83.2,-378.5 -24.1,-10.9 -98.5,-21.9 -166.3,-21.9 -107.2,0 -131.3,8.8 -188.1,63.5 -54.7,54.7 -63.5,81 -63.5,181.6 2.2,131.3 35,207.8 111.6,249.4 74.5,41.5 232,37.1 304.2,-6.6 z m -3283.9,-411.4 234.1,-229.7 245,229.7 c 218.8,203.5 253.8,229.7 323.8,229.7 65.6,0 98.5,-17.5 175,-96.3 140,-140 135.6,-207.8 -32.8,-400.4 -70,-83.1 -175,-192.5 -229.7,-247.2 l -100.6,-96.3 229.7,-234.1 c 212.2,-214.4 229.7,-238.5 229.7,-317.2 0,-70 -15.3,-100.7 -91.9,-177.2 -80.9,-83.1 -105,-94.1 -188.1,-94.1 -91.9,0 -105,8.8 -326,225.3 l -229.7,225.4 -223.1,-225.4 c -218.8,-221 -225.4,-225.3 -323.8,-225.3 -89.7,0 -107.2,8.8 -190.3,98.4 -70,76.6 -89.7,113.8 -89.7,177.2 0,72.2 21.9,102.8 229.7,312.9 l 227.5,231.9 -227.5,231.9 c -218.8,221 -229.7,236.3 -229.7,326 0,80.9 13.1,105 96.3,188.2 78.8,78.8 109.4,96.3 177.2,96.3 76.4,0.1 102.7,-19.6 314.9,-229.7 z m 4106.5,-413.4 c 63.4,-63.4 74.4,-89.7 74.4,-177.2 0,-113.8 -26.3,-179.4 -96.3,-234.1 -41.6,-35 -126.9,-39.4 -960.4,-39.4 h -916.7 l -63.4,63.5 c -54.7,54.7 -63.5,81 -63.5,181.6 2.2,63.5 15.3,140 30.6,168.5 61.3,109.4 72.2,109.4 1026.1,111.6 h 894.8 z m -824.8,-743.9 c 72.2,-39.4 111.6,-118.1 111.6,-234.1 0,-186 -107.2,-275.7 -308.5,-256 -144.4,15.3 -196.9,67.8 -212.2,212.2 -13.1,133.4 24.1,234.1 102.8,275.7 74.4,39.4 229.8,41.6 306.3,2.2 z"
         id="path4" />
    </g>
  </g>
</svg>
